<?xml version="1.0" standalone="no"?>
<!DOCTYPE svg PUBLIC "-//W3C//DTD SVG 20010904//EN"
 "http://www.w3.org/TR/2001/REC-SVG-20010904/DTD/svg10.dtd">
<svg version="1.0" xmlns="http://www.w3.org/2000/svg"
 width="16.000000pt" height="16.000000pt" viewBox="0 0 16.000000 16.000000"
 preserveAspectRatio="xMidYMid meet">

<g transform="translate(0.000000,16.000000) scale(0.100000,-0.100000)"
fill="#000000" stroke="none">
<path d="M43 148 c-55 -27 -50 -114 8 -138 89 -37 151 99 63 139 -30 13 -42
13 -71 -1z m24 -65 c-2 -31 -6 -39 -24 -41 -18 -3 -23 1 -23 19 0 22 0 22 15
3 11 -15 14 -16 15 -3 0 8 -5 20 -11 26 -13 13 -4 33 16 33 10 0 14 -11 12
-37z m34 -15 l2 -23 4 23 c2 12 9 22 15 22 5 0 8 -7 4 -15 -3 -8 0 -15 7 -16
7 0 1 -5 -12 -10 -25 -10 -41 1 -41 29 0 22 20 13 21 -10z"/>
</g>
</svg>
